<?xml version="1.0" encoding="UTF-8"?>
<svg viewBox="0 0 32 32" fill="none" xmlns="http://www.w3.org/2000/svg">
  <rect width="32" height="32" rx="8" fill="#1864D1"/>
  <g transform="translate(16, 14.5) scale(0.9)">
      <circle cx="0" cy="0" r="4.5" fill="white" />
      <g transform="rotate(0)"><line x1="0" y1="-4.5" x2="0" y2="-9.5" stroke="white" stroke-width="2" stroke-linecap="round"/><circle cx="0" cy="-11.5" r="2" fill="white"/></g>
      <g transform="rotate(45)"><line x1="0" y1="-4.5" x2="0" y2="-9.5" stroke="white" stroke-width="2" stroke-linecap="round"/><circle cx="0" cy="-11.5" r="2" fill="white"/></g>
      <g transform="rotate(90)"><line x1="0" y1="-4.5" x2="0" y2="-9.5" stroke="white" stroke-width="2" stroke-linecap="round"/><circle cx="0" cy="-11.5" r="2" fill="white"/></g>
      <g transform="rotate(135)"><line x1="0" y1="-4.5" x2="0" y2="-9.5" stroke="white" stroke-width="2" stroke-linecap="round"/><circle cx="0" cy="-11.5" r="2" fill="white"/></g>
      <g transform="rotate(180)"><line x1="0" y1="-4.5" x2="0" y2="-9.5" stroke="white" stroke-width="2" stroke-linecap="round"/><circle cx="0" cy="-11.5" r="2" fill="white"/></g>
      <g transform="rotate(225)"><line x1="0" y1="-4.5" x2="0" y2="-9.5" stroke="white" stroke-width="2" stroke-linecap="round"/><circle cx="0" cy="-11.5" r="2" fill="white"/></g>
      <g transform="rotate(270)"><line x1="0" y1="-4.5" x2="0" y2="-9.5" stroke="white" stroke-width="2" stroke-linecap="round"/><circle cx="0" cy="-11.5" r="2" fill="white"/></g>
      <g transform="rotate(315)"><line x1="0" y1="-4.5" x2="0" y2="-9.5" stroke="white" stroke-width="2" stroke-linecap="round"/><circle cx="0" cy="-11.5" r="2" fill="white"/></g>
  </g>
</svg>
